<?xml version="1.0" standalone="no"?>
<!DOCTYPE svg PUBLIC "-//W3C//DTD SVG 20010904//EN"
 "http://www.w3.org/TR/2001/REC-SVG-20010904/DTD/svg10.dtd">
<svg version="1.0" xmlns="http://www.w3.org/2000/svg"
 width="16.000000pt" height="16.000000pt" viewBox="0 0 16.000000 16.000000"
 preserveAspectRatio="xMidYMid meet">

<g transform="translate(0.000000,16.000000) scale(0.100000,-0.100000)"
fill="#000000" stroke="none">
<path d="M21 119 c-2 -14 22 -69 30 -69 5 0 9 5 9 10 0 6 -4 10 -8 10 -5 0
-13 12 -19 28 -6 15 -11 24 -12 21z"/>
<path d="M91 78 c1 -24 3 -35 6 -25 6 21 19 22 31 1 6 -11 9 -7 9 18 0 33 -11
48 -34 48 -9 0 -13 -14 -12 -42z m31 17 c0 -5 -5 -11 -11 -13 -6 -2 -11 4 -11
13 0 9 5 15 11 13 6 -2 11 -8 11 -13z"/>
<path d="M65 99 c-4 -6 -5 -12 -2 -15 2 -3 7 2 10 11 7 17 1 20 -8 4z"/>
</g>
</svg>
