<?xml version="1.0" standalone="no"?>
<!DOCTYPE svg PUBLIC "-//W3C//DTD SVG 20010904//EN"
 "http://www.w3.org/TR/2001/REC-SVG-20010904/DTD/svg10.dtd">
<svg version="1.0" xmlns="http://www.w3.org/2000/svg"
 width="512.000000pt" height="512.000000pt" viewBox="0 0 512.000000 512.000000"
 preserveAspectRatio="xMidYMid meet">

<g transform="translate(0.000000,512.000000) scale(0.100000,-0.100000)"
fill="#000000" stroke="none">
<path d="M2365 5114 c-108 -9 -326 -46 -435 -73 -172 -44 -335 -105 -509 -192
-503 -249 -900 -646 -1150 -1150 -126 -252 -198 -480 -243 -764 -32 -201 -32
-549 0 -750 45 -284 117 -512 243 -764 249 -503 646 -900 1150 -1150 252 -126
480 -198 764 -243 201 -32 549 -32 750 0 284 45 512 117 764 243 504 250 901
647 1150 1150 126 252 198 480 243 764 32 201 32 549 0 750 -45 284 -117 512
-243 764 -249 503 -646 900 -1150 1150 -357 178 -685 258 -1084 265 -110 2
-222 2 -250 0z m-1109 -2354 c175 -511 321 -930 324 -930 3 0 150 418 326 928
l322 927 161 3 c89 1 161 -1 161 -5 0 -5 -187 -515 -417 -1136 l-417 -1128
-135 3 -134 3 -388 1050 c-214 578 -402 1087 -418 1133 l-30 82 163 0 163 0
319 -930z m2661 902 c257 -68 429 -236 478 -467 20 -94 19 -262 -1 -344 -45
-179 -181 -341 -354 -420 l-59 -26 266 -480 c146 -264 268 -486 270 -492 4
-10 -32 -13 -159 -13 l-164 0 -245 458 -246 457 -266 3 -267 2 0 -460 0 -460
-155 0 -155 0 0 1136 0 1135 488 -4 c461 -3 491 -4 569 -25z"/>
<path d="M3170 3021 l0 -431 278 0 c302 0 364 8 453 57 68 37 135 108 172 182
54 110 50 287 -9 405 -46 92 -126 155 -242 189 -58 17 -107 20 -359 24 l-293
5 0 -431z"/>
</g>
</svg>
